<?xml version="1.0" encoding="utf-8" ?>
<!DOCTYPE svg PUBLIC "-//W3C//DTD SVG 1.1//EN" "http://www.w3.org/Graphics/SVG/1.1/DTD/svg11.dtd">
<svg height="785" version="1.1" width="764" xmlns="http://www.w3.org/2000/svg">
<polygon fill="#ffffff" points="190,166 206,182 190,198 174,182" stroke="#ffffff" stroke-width="1"/>
<polygon fill="none" points="190,166 206,182 190,198 174,182" stroke="#000000" stroke-width="1"/>
<rect fill="#00ff" height="35" rx="37" ry="37" stroke="#00ff" stroke-width="1" width="154" x="15" y="215"/>
<rect fill="#ffffff" height="37" rx="37" ry="37" stroke="#000000" stroke-width="1" width="156" x="14" y="214"/>
<rect fill="#ffffff" height="35" rx="37" ry="37" stroke="#ffffff" stroke-width="1" width="154" x="15" y="215"/>
<text font-family="Dialog" font-size="12" x="26" y="234">
Bj=Ec*temps/rendement</text>
<polyline fill="none" points="174,182 110,182 110,215" stroke="#333399" stroke-width="1"/>
<line fill="#333399" stroke="#333399" stroke-width="1" x1="103" x2="110" y1="203" y2="215"/>
<line fill="#333399" stroke="#333399" stroke-width="1" x1="117" x2="110" y1="203" y2="215"/>
<text font-family="Dialog" font-size="12" x="66" y="186">
AC</text>
<rect fill="#00ff" height="35" rx="37" ry="37" stroke="#00ff" stroke-width="1" width="118" x="231" y="215"/>
<rect fill="#ffffff" height="37" rx="37" ry="37" stroke="#000000" stroke-width="1" width="120" x="230" y="214"/>
<rect fill="#ffffff" height="35" rx="37" ry="37" stroke="#ffffff" stroke-width="1" width="118" x="231" y="215"/>
<text font-family="Dialog" font-size="12" x="255" y="234">
Bj=Ec*temps</text>
<polyline fill="none" points="206,182 286,182 286,215" stroke="#333399" stroke-width="1"/>
<line fill="#333399" stroke="#333399" stroke-width="1" x1="279" x2="286" y1="203" y2="215"/>
<line fill="#333399" stroke="#333399" stroke-width="1" x1="293" x2="286" y1="203" y2="215"/>
<text font-family="Dialog" font-size="12" x="254" y="175">
DC</text>
<rect fill="#00ff" height="52" rx="54" ry="54" stroke="#00ff" stroke-width="1" width="117" x="135" y="95"/>
<rect fill="#ffffff" height="54" rx="54" ry="54" stroke="#000000" stroke-width="1" width="119" x="134" y="94"/>
<rect fill="#ffffff" height="52" rx="54" ry="54" stroke="#ffffff" stroke-width="1" width="117" x="135" y="95"/>
<text font-family="Dialog" font-size="12" x="146" y="114">
Calculer le besoin</text>
<text font-family="Dialog" font-size="12" x="159" y="131">
journalie "Bj"</text>
<polyline fill="none" points="190,146 190,166" stroke="#333399" stroke-width="1"/>
<line fill="#333399" stroke="#333399" stroke-width="1" x1="183" x2="190" y1="154" y2="166"/>
<line fill="#333399" stroke="#333399" stroke-width="1" x1="197" x2="190" y1="154" y2="166"/>
<rect fill="#00ff" height="52" rx="54" ry="54" stroke="#00ff" stroke-width="1" width="172" x="111" y="287"/>
<rect fill="#ffffff" height="54" rx="54" ry="54" stroke="#000000" stroke-width="1" width="174" x="110" y="286"/>
<rect fill="#ffffff" height="52" rx="54" ry="54" stroke="#ffffff" stroke-width="1" width="172" x="111" y="287"/>
<text font-family="Dialog" font-size="12" x="122" y="306">
récuperer l'ensoleiment "Ne"</text>
<text font-family="Dialog" font-size="12" x="148" y="323">
selon le site choisi</text>
<polyline fill="none" points="254,249 254,287" stroke="#333399" stroke-width="1"/>
<line fill="#333399" stroke="#333399" stroke-width="1" x1="247" x2="254" y1="275" y2="287"/>
<line fill="#333399" stroke="#333399" stroke-width="1" x1="261" x2="254" y1="275" y2="287"/>
<polyline fill="none" points="126,249 126,287" stroke="#333399" stroke-width="1"/>
<line fill="#333399" stroke="#333399" stroke-width="1" x1="119" x2="126" y1="275" y2="287"/>
<line fill="#333399" stroke="#333399" stroke-width="1" x1="133" x2="126" y1="275" y2="287"/>
<rect fill="#00ff" height="52" rx="54" ry="54" stroke="#00ff" stroke-width="1" width="290" x="47" y="383"/>
<rect fill="#ffffff" height="54" rx="54" ry="54" stroke="#000000" stroke-width="1" width="292" x="46" y="382"/>
<rect fill="#ffffff" height="52" rx="54" ry="54" stroke="#ffffff" stroke-width="1" width="290" x="47" y="383"/>
<text font-family="Dialog" font-size="12" x="85" y="402">
Calculer la puissante de la charge "Pch"</text>
<text font-family="Dialog" font-size="12" x="149" y="419">
Pch=Bj/(Cp*Ne)</text>
<polyline fill="none" points="198,338 198,383" stroke="#333399" stroke-width="1"/>
<line fill="#333399" stroke="#333399" stroke-width="1" x1="191" x2="198" y1="371" y2="383"/>
<line fill="#333399" stroke="#333399" stroke-width="1" x1="205" x2="198" y1="371" y2="383"/>
<rect fill="#00ff" height="35" rx="37" ry="37" stroke="#00ff" stroke-width="1" width="219" x="87" y="471"/>
<rect fill="#ffffff" height="37" rx="37" ry="37" stroke="#000000" stroke-width="1" width="221" x="86" y="470"/>
<rect fill="#ffffff" height="35" rx="37" ry="37" stroke="#ffffff" stroke-width="1" width="219" x="87" y="471"/>
<text font-family="Dialog" font-size="12" x="98" y="490">
Convertir la valeaur du voltage "Vch"</text>
<polyline fill="none" points="198,434 198,471" stroke="#333399" stroke-width="1"/>
<line fill="#333399" stroke="#333399" stroke-width="1" x1="191" x2="198" y1="459" y2="471"/>
<line fill="#333399" stroke="#333399" stroke-width="1" x1="205" x2="198" y1="459" y2="471"/>
<rect fill="#00ff" height="52" rx="54" ry="54" stroke="#00ff" stroke-width="1" width="266" x="463" y="71"/>
<rect fill="#ffffff" height="54" rx="54" ry="54" stroke="#000000" stroke-width="1" width="268" x="462" y="70"/>
<rect fill="#ffffff" height="52" rx="54" ry="54" stroke="#ffffff" stroke-width="1" width="266" x="463" y="71"/>
<text font-family="Dialog" font-size="12" x="474" y="90">
Convertir la valeur de type des panneaux "Pc"</text>
<text font-family="Dialog" font-size="12" x="512" y="107">
et le voltage qui les génére "Vn"</text>
<polyline fill="none" points="305,486 414,486 414,94 463,94" stroke="#333399" stroke-width="1"/>
<line fill="#333399" stroke="#333399" stroke-width="1" x1="451" x2="463" y1="101" y2="94"/>
<line fill="#333399" stroke="#333399" stroke-width="1" x1="451" x2="463" y1="87" y2="94"/>
<rect fill="#00ff" height="52" rx="54" ry="54" stroke="#00ff" stroke-width="1" width="287" x="455" y="167"/>
<rect fill="#ffffff" height="54" rx="54" ry="54" stroke="#000000" stroke-width="1" width="289" x="454" y="166"/>
<rect fill="#ffffff" height="52" rx="54" ry="54" stroke="#ffffff" stroke-width="1" width="287" x="455" y="167"/>
<text font-family="Dialog" font-size="12" x="466" y="186">
Calculer le nombre de panneaux nécessaire "Nm"</text>
<text font-family="Dialog" font-size="12" x="563" y="203">
Nm=Pch/Pc;</text>
<polyline fill="none" points="598,122 598,167" stroke="#333399" stroke-width="1"/>
<line fill="#333399" stroke="#333399" stroke-width="1" x1="591" x2="598" y1="155" y2="167"/>
<line fill="#333399" stroke="#333399" stroke-width="1" x1="605" x2="598" y1="155" y2="167"/>
<rect fill="#00ff" height="52" rx="54" ry="54" stroke="#00ff" stroke-width="1" width="266" x="471" y="255"/>
<rect fill="#ffffff" height="54" rx="54" ry="54" stroke="#000000" stroke-width="1" width="268" x="470" y="254"/>
<rect fill="#ffffff" height="52" rx="54" ry="54" stroke="#ffffff" stroke-width="1" width="266" x="471" y="255"/>
<text font-family="Dialog" font-size="12" x="482" y="274">
Calculer le nombre de panneaux en série "Ns"</text>
<text font-family="Dialog" font-size="12" x="569" y="291">
  Ns=Vch/Vn</text>
<polyline fill="none" points="598,218 598,255" stroke="#333399" stroke-width="1"/>
<line fill="#333399" stroke="#333399" stroke-width="1" x1="591" x2="598" y1="243" y2="255"/>
<line fill="#333399" stroke="#333399" stroke-width="1" x1="605" x2="598" y1="243" y2="255"/>
<rect fill="#00ff" height="52" rx="54" ry="54" stroke="#00ff" stroke-width="1" width="282" x="463" y="335"/>
<rect fill="#ffffff" height="54" rx="54" ry="54" stroke="#000000" stroke-width="1" width="284" x="462" y="334"/>
<rect fill="#ffffff" height="52" rx="54" ry="54" stroke="#ffffff" stroke-width="1" width="282" x="463" y="335"/>
<text font-family="Dialog" font-size="12" x="474" y="354">
Calculer le nombre de panneaux en parallel "Np"</text>
<text font-family="Dialog" font-size="12" x="569" y="371">
  Np=Nm/Ns</text>
<polyline fill="none" points="598,306 598,335" stroke="#333399" stroke-width="1"/>
<line fill="#333399" stroke="#333399" stroke-width="1" x1="591" x2="598" y1="323" y2="335"/>
<line fill="#333399" stroke="#333399" stroke-width="1" x1="605" x2="598" y1="323" y2="335"/>
<rect fill="#00ff" height="35" rx="37" ry="37" stroke="#00ff" stroke-width="1" width="184" x="511" y="423"/>
<rect fill="#ffffff" height="37" rx="37" ry="37" stroke="#000000" stroke-width="1" width="186" x="510" y="422"/>
<rect fill="#ffffff" height="35" rx="37" ry="37" stroke="#ffffff" stroke-width="1" width="184" x="511" y="423"/>
<text font-family="Dialog" font-size="12" x="522" y="442">
Calculer le cout des panneaux</text>
<polyline fill="none" points="598,386 598,423" stroke="#333399" stroke-width="1"/>
<line fill="#333399" stroke="#333399" stroke-width="1" x1="591" x2="598" y1="411" y2="423"/>
<line fill="#333399" stroke="#333399" stroke-width="1" x1="605" x2="598" y1="411" y2="423"/>
<polygon fill="#ffffff" points="598,494 614,510 598,526 582,510" stroke="#ffffff" stroke-width="1"/>
<polygon fill="none" points="598,494 614,510 598,526 582,510" stroke="#000000" stroke-width="1"/>
<polyline fill="none" points="598,457 598,494" stroke="#333399" stroke-width="1"/>
<line fill="#333399" stroke="#333399" stroke-width="1" x1="591" x2="598" y1="482" y2="494"/>
<line fill="#333399" stroke="#333399" stroke-width="1" x1="605" x2="598" y1="482" y2="494"/>
<rect fill="#00ff" height="52" rx="54" ry="54" stroke="#00ff" stroke-width="1" width="286" x="463" y="647"/>
<rect fill="#ffffff" height="54" rx="54" ry="54" stroke="#000000" stroke-width="1" width="288" x="462" y="646"/>
<rect fill="#ffffff" height="52" rx="54" ry="54" stroke="#ffffff" stroke-width="1" width="286" x="463" y="647"/>
<text font-family="Dialog" font-size="12" x="479" y="666">
Calculer le nombre de batteries nécessaire "Nb"</text>
<text font-family="Dialog" font-size="12" x="562" y="683">
Nb=Cbat/C1bat</text>
<rect fill="#00ff" height="35" rx="37" ry="37" stroke="#00ff" stroke-width="1" width="172" x="519" y="735"/>
<rect fill="#ffffff" height="37" rx="37" ry="37" stroke="#000000" stroke-width="1" width="174" x="518" y="734"/>
<rect fill="#ffffff" height="35" rx="37" ry="37" stroke="#ffffff" stroke-width="1" width="172" x="519" y="735"/>
<text font-family="Dialog" font-size="12" x="530" y="754">
Ajouter le cout des batteries</text>
<polyline fill="none" points="599,698 599,735" stroke="#333399" stroke-width="1"/>
<line fill="#333399" stroke="#333399" stroke-width="1" x1="592" x2="599" y1="723" y2="735"/>
<line fill="#333399" stroke="#333399" stroke-width="1" x1="606" x2="599" y1="723" y2="735"/>
<polyline fill="none" points="582,510 454,510 454,526 206,526 206,598" stroke="#333399" stroke-width="1"/>
<line fill="#333399" stroke="#333399" stroke-width="1" x1="199" x2="206" y1="586" y2="598"/>
<line fill="#333399" stroke="#333399" stroke-width="1" x1="213" x2="206" y1="586" y2="598"/>
<polyline fill="none" points="519,750 206,750 206,645" stroke="#333399" stroke-width="1"/>
<line fill="#333399" stroke="#333399" stroke-width="1" x1="213" x2="206" y1="657" y2="645"/>
<line fill="#333399" stroke="#333399" stroke-width="1" x1="199" x2="206" y1="657" y2="645"/>
<rect fill="#00ff" height="52" rx="54" ry="54" stroke="#00ff" stroke-width="1" width="291" x="455" y="551"/>
<rect fill="#ffffff" height="54" rx="54" ry="54" stroke="#000000" stroke-width="1" width="293" x="454" y="550"/>
<rect fill="#ffffff" height="52" rx="54" ry="54" stroke="#ffffff" stroke-width="1" width="291" x="455" y="551"/>
<text font-family="Dialog" font-size="12" x="466" y="570">
Calculer la capacitée de batterie nécessaire "Cbat"</text>
<text font-family="Dialog" font-size="12" x="511" y="587">
Cbat=Bj*Antonome/(Vch*Rt*Pd);</text>
<polyline fill="none" points="598,526 598,551" stroke="#333399" stroke-width="1"/>
<line fill="#333399" stroke="#333399" stroke-width="1" x1="591" x2="598" y1="539" y2="551"/>
<line fill="#333399" stroke="#333399" stroke-width="1" x1="605" x2="598" y1="539" y2="551"/>
<polyline fill="none" points="600,602 600,647" stroke="#333399" stroke-width="1"/>
<line fill="#333399" stroke="#333399" stroke-width="1" x1="593" x2="600" y1="635" y2="647"/>
<line fill="#333399" stroke="#333399" stroke-width="1" x1="607" x2="600" y1="635" y2="647"/>
<rect fill="#00ff" height="46" rx="48" ry="48" stroke="#00ff" stroke-width="1" width="102" x="159" y="599"/>
<rect fill="#ffffff" height="48" rx="48" ry="48" stroke="#000000" stroke-width="1" width="104" x="158" y="598"/>
<rect fill="#ffffff" height="46" rx="48" ry="48" stroke="#ffffff" stroke-width="1" width="102" x="159" y="599"/>
<text font-family="Dialog" font-size="12" x="201" y="618">
Fin</text>
<rect fill="#00ff" height="35" rx="37" ry="37" stroke="#00ff" stroke-width="1" width="102" x="135" y="15"/>
<rect fill="#ffffff" height="37" rx="37" ry="37" stroke="#000000" stroke-width="1" width="104" x="134" y="14"/>
<rect fill="#ffffff" height="35" rx="37" ry="37" stroke="#ffffff" stroke-width="1" width="102" x="135" y="15"/>
<text font-family="Dialog" font-size="12" x="170" y="34">
debut</text>
<polyline fill="none" points="186,49 186,95" stroke="#333399" stroke-width="1"/>
<line fill="#333399" stroke="#333399" stroke-width="1" x1="179" x2="186" y1="83" y2="95"/>
<line fill="#333399" stroke="#333399" stroke-width="1" x1="193" x2="186" y1="83" y2="95"/>
</svg>
